<svg width="20" height="19" viewBox="0 0 20 19" fill="none" xmlns="http://www.w3.org/2000/svg">
<path d="M18.4584 7.16669H16.1771L12.1459 2.44794C11.8646 2.13544 11.3959 2.10419 11.0834 2.35419C10.7709 2.63544 10.7396 3.10419 10.9896 3.41669L14.2084 7.16669H5.42712L8.64587 3.41669C8.89587 3.10419 8.86462 2.63544 8.55212 2.35419C8.23962 2.10419 7.77087 2.13544 7.48962 2.44794L3.45837 7.16669H1.20837C0.989624 7.16669 0.833374 7.35419 0.833374 7.54169V8.29169C0.833374 8.51044 0.989624 8.66669 1.20837 8.66669H1.77087L2.64587 14.8854C2.73962 15.6354 3.36462 16.1667 4.11462 16.1667H15.5209C16.2709 16.1667 16.8959 15.6354 16.9896 14.8854L17.8646 8.66669H18.4584C18.6459 8.66669 18.8334 8.51044 18.8334 8.29169V7.54169C18.8334 7.35419 18.6459 7.16669 18.4584 7.16669ZM15.5209 14.6667H4.11462L3.30212 8.66669H16.3334L15.5209 14.6667ZM10.5834 10.4167C10.5834 10.0104 10.2396 9.66669 9.83337 9.66669C9.39587 9.66669 9.08337 10.0104 9.08337 10.4167V12.9167C9.08337 13.3542 9.39587 13.6667 9.83337 13.6667C10.2396 13.6667 10.5834 13.3542 10.5834 12.9167V10.4167ZM14.0834 10.4167C14.0834 10.0104 13.7396 9.66669 13.3334 9.66669C12.8959 9.66669 12.5834 10.0104 12.5834 10.4167V12.9167C12.5834 13.3542 12.8959 13.6667 13.3334 13.6667C13.7396 13.6667 14.0834 13.3542 14.0834 12.9167V10.4167ZM7.08337 10.4167C7.08337 10.0104 6.73962 9.66669 6.33337 9.66669C5.89587 9.66669 5.58337 10.0104 5.58337 10.4167V12.9167C5.58337 13.3542 5.89587 13.6667 6.33337 13.6667C6.73962 13.6667 7.08337 13.3542 7.08337 12.9167V10.4167Z" fill="#323232"/>
</svg>
